<!DOCTYPE svg PUBLIC "-//W3C//DTD SVG 20010904//EN" "http://www.w3.org/TR/2001/REC-SVG-20010904/DTD/svg10.dtd">
<svg version="1.0" xmlns="http://www.w3.org/2000/svg" width="768px" height="95px" viewBox="0 0 7680 950" preserveAspectRatio="xMidYMid meet">
<g id="layer101" fill="#959595" stroke="none">
 <path d="M180 830 c-19 -19 -20 -33 -20 -260 0 -227 1 -241 20 -260 24 -24 48 -25 78 -4 21 14 22 22 22 140 l0 124 530 0 530 0 0 -178 c0 -144 3 -182 16 -200 18 -26 60 -29 90 -8 18 14 19 29 19 326 0 297 -1 312 -19 326 -11 8 -32 14 -47 14 -43 0 -59 -32 -59 -117 l0 -73 -527 2 -528 3 -3 75 c-3 82 -18 110 -59 110 -12 0 -32 -9 -43 -20z"/>
 <path d="M1807 783 c-4 -3 -7 -109 -7 -235 l0 -228 59 0 c108 0 144 31 144 124 0 87 -42 126 -134 126 l-39 0 0 110 c0 101 -5 122 -23 103z m153 -270 c18 -23 21 -37 18 -82 -6 -69 -30 -91 -99 -91 l-49 0 0 100 0 100 54 0 c48 0 57 -4 76 -27z"/>
 <path d="M2230 555 l0 -235 95 0 c57 0 95 4 95 10 0 6 -35 10 -85 10 l-85 0 0 100 0 99 55 3 c30 2 55 8 55 13 0 6 -25 11 -55 13 l-55 3 0 99 0 100 85 0 c50 0 85 4 85 10 0 6 -38 10 -95 10 l-95 0 0 -235z"/>
 <path d="M2710 565 l0 -225 -45 0 c-25 0 -45 -4 -45 -10 0 -6 42 -10 105 -10 63 0 105 4 105 10 0 6 -22 10 -50 10 l-50 0 0 225 c0 143 -4 225 -10 225 -6 0 -10 -82 -10 -225z"/>
 <path d="M3050 555 l0 -235 95 0 c57 0 95 4 95 10 0 6 -35 10 -85 10 l-85 0 0 100 0 100 54 0 c55 0 80 12 50 24 -9 3 -36 6 -60 6 l-45 0 3 98 3 97 83 3 c114 4 104 22 -13 22 l-95 0 0 -235z"/>
 <path d="M3470 555 l0 -235 59 0 c33 0 71 4 85 10 39 14 59 63 54 129 -4 47 -10 59 -38 82 l-32 27 20 59 c12 33 28 78 37 101 20 48 15 80 -5 42 -8 -14 -28 -65 -45 -115 l-31 -90 -42 -3 -42 -3 0 115 c0 71 -4 116 -10 116 -6 0 -10 -85 -10 -235z m135 -21 c23 -9 45 -57 45 -99 0 -27 -8 -44 -29 -66 -25 -24 -37 -29 -80 -29 l-51 0 0 100 0 100 49 0 c27 0 57 -3 66 -6z"/>
 <path d="M3890 555 c0 -213 6 -266 24 -219 3 9 6 107 6 219 0 112 -3 210 -6 219 -18 47 -24 -6 -24 -219z"/>
 <path d="M4197 779 c-34 -20 -65 -119 -37 -119 6 0 10 9 10 20 0 29 26 76 45 84 61 23 115 -16 115 -82 0 -32 -10 -45 -90 -122 -88 -84 -90 -87 -90 -132 0 -66 36 -108 92 -108 21 0 48 5 60 11 21 11 48 66 48 99 0 32 -18 23 -25 -12 -10 -47 -42 -78 -80 -78 -37 0 -62 24 -71 67 -8 43 16 84 75 127 79 59 101 90 101 146 0 65 -39 110 -97 110 -21 0 -46 -5 -56 -11z"/>
 <path d="M6520 702 c-47 -6 -80 -24 -100 -57 -18 -29 -20 -50 -20 -184 l0 -151 34 -37 c31 -34 38 -37 97 -40 40 -3 73 1 89 9 35 19 70 75 70 113 0 37 -12 45 -71 45 -37 0 -41 -3 -56 -37 -14 -35 -16 -36 -29 -18 -21 28 -20 228 1 245 12 10 16 8 24 -11 5 -14 5 -31 0 -41 -5 -9 -9 -35 -9 -57 l0 -41 71 0 71 0 -4 95 c-3 90 -5 96 -33 124 -31 31 -89 49 -135 43z"/>
 <path d="M6958 700 c-85 -15 -108 -65 -108 -235 0 -144 11 -184 62 -215 45 -27 131 -27 176 0 51 31 62 70 62 217 0 102 -4 135 -18 162 -31 62 -91 86 -174 71z m57 -236 c0 -108 -2 -129 -15 -129 -12 0 -16 21 -18 119 -3 127 0 150 21 143 9 -3 12 -38 12 -133z"/>
 <path d="M7414 698 c-54 -11 -94 -53 -101 -107 l-6 -41 66 0 c58 0 66 2 69 20 4 25 22 31 26 9 2 -10 -21 -35 -61 -67 -104 -82 -127 -169 -63 -239 30 -33 39 -37 93 -41 95 -7 153 37 153 118 l0 30 -60 0 c-53 0 -60 -2 -60 -19 0 -27 -15 -34 -31 -15 -11 13 -1 26 69 92 88 84 101 111 83 173 -21 69 -91 104 -177 87z"/>
 <path d="M4570 465 l0 -235 93 0 c132 0 189 34 203 122 15 93 -32 163 -118 174 l-48 7 0 83 0 84 -65 0 -65 0 0 -235z m158 -44 c20 -12 11 -75 -10 -79 -15 -3 -18 4 -18 42 0 47 4 52 28 37z"/>
 <path d="M5000 688 c0 -7 9 -53 19 -103 59 -279 73 -341 80 -348 5 -4 37 -7 72 -5 l64 3 12 55 c7 30 22 98 33 150 10 52 26 126 35 165 22 101 24 96 -47 93 -60 -3 -63 -4 -66 -30 -3 -24 -8 -28 -37 -28 -29 0 -34 4 -40 30 -6 29 -8 30 -66 30 -41 0 -59 -4 -59 -12z m179 -180 c-1 -18 -4 -46 -8 -63 -6 -28 -7 -27 -14 19 -10 68 -9 76 8 76 10 0 15 -10 14 -32z"/>
 <path d="M5494 687 c-2 -7 -3 -111 -2 -232 l3 -220 63 -3 62 -3 0 180 0 180 73 3 c71 3 72 3 75 32 2 15 1 39 -2 52 -6 24 -8 24 -137 24 -96 0 -131 -3 -135 -13z"/>
 <path d="M5923 678 c6 -24 34 -155 71 -338 l22 -105 71 -3 71 -3 12 58 c6 32 13 65 16 73 4 12 14 58 58 278 l13 62 -63 0 c-61 0 -63 -1 -69 -30 -6 -26 -11 -30 -40 -30 -29 0 -34 4 -37 28 -3 26 -6 27 -67 30 -62 3 -63 2 -58 -20z m179 -185 c-5 -47 -9 -60 -16 -52 -2 2 -6 25 -9 52 -6 41 -4 47 12 47 16 0 18 -6 13 -47z"/>
 <path d="M300 507 c0 -47 4 -59 34 -93 l34 -39 323 0 324 0 0 90 0 90 -357 3 -358 2 0 -53z"/>
 <path d="M1032 468 c3 -92 3 -93 28 -93 23 0 25 4 28 58 l3 57 104 0 c81 0 107 3 119 16 19 19 20 26 4 42 -8 8 -56 12 -150 12 l-139 0 3 -92z"/>
 <path d="M1169 465 c-77 -42 -76 -150 1 -190 45 -23 76 -19 116 18 28 25 36 41 37 69 2 88 -80 143 -154 103z"/>
 <path d="M2270 240 c-10 -7 6 -10 55 -10 49 0 65 3 55 10 -8 5 -33 10 -55 10 -22 0 -47 -5 -55 -10z"/>
 </g>
<g id="layer102" fill="#b6b6b6" stroke="none">
 <path d="M180 830 c-19 -19 -20 -33 -20 -258 0 -238 0 -239 24 -261 27 -25 70 -21 86 9 6 10 10 71 10 134 l0 116 530 0 530 0 0 -178 c0 -198 6 -222 59 -222 60 0 61 6 61 342 0 287 -1 306 -19 322 -27 25 -72 17 -88 -14 -7 -14 -13 -55 -13 -93 l0 -67 -527 2 -528 3 -3 75 c-3 82 -18 110 -59 110 -12 0 -32 -9 -43 -20z"/>
 <path d="M1812 558 l-2 -238 55 0 c66 0 112 21 125 56 6 14 10 49 10 78 0 45 -4 56 -31 82 -26 24 -39 29 -87 31 l-57 1 -6 114 c-4 86 -5 56 -7 -124z m143 -28 c24 -20 37 -82 24 -121 -17 -52 -43 -69 -105 -69 l-54 0 0 98 c0 54 2 101 4 103 10 9 117 1 131 -11z"/>
 <path d="M2230 555 l0 -235 95 0 c57 0 95 4 95 10 0 6 -35 10 -85 10 l-85 0 0 105 0 105 55 0 c34 0 55 4 55 11 0 8 -18 10 -55 7 l-55 -5 0 104 0 103 86 0 c54 0 83 4 79 10 -3 6 -46 10 -96 10 l-89 0 0 -235z"/>
 <path d="M2718 784 c-5 -4 -8 -106 -8 -226 l0 -218 -45 0 c-25 0 -45 -4 -45 -10 0 -6 42 -10 105 -10 63 0 105 4 105 10 0 6 -22 10 -50 10 l-50 0 -2 226 c-2 124 -6 222 -10 218z"/>
 <path d="M3054 777 c-2 -7 -3 -111 -2 -232 l3 -220 93 -3 c59 -2 92 1 92 8 0 6 -33 10 -85 10 l-86 0 3 103 3 102 60 5 c52 5 56 7 32 14 -15 5 -44 6 -63 3 l-34 -6 0 105 0 104 85 0 c50 0 85 4 85 10 0 16 -179 13 -186 -3z"/>
 <path d="M3478 784 c-5 -4 -8 -110 -8 -236 l0 -228 65 0 c57 0 69 3 96 28 58 52 48 171 -17 201 -21 9 -23 13 -13 38 28 70 61 160 66 182 11 45 -15 12 -33 -42 -9 -28 -20 -56 -24 -62 -4 -5 -13 -31 -20 -57 -13 -48 -13 -48 -56 -48 l-43 0 -3 116 c-2 64 -6 112 -10 108z m150 -269 c26 -31 30 -91 7 -134 -17 -35 -32 -41 -96 -41 l-49 0 0 98 c0 54 3 102 8 106 4 5 30 5 57 2 37 -4 56 -12 73 -31z"/>
 <path d="M3890 555 c0 -213 6 -266 24 -219 3 9 6 107 6 219 0 112 -3 210 -6 219 -18 47 -24 -6 -24 -219z"/>
 <path d="M4203 778 c-32 -16 -70 -118 -43 -118 6 0 10 10 10 23 0 12 9 37 20 55 17 27 25 32 59 32 49 0 81 -35 81 -89 0 -46 -16 -69 -89 -125 -92 -71 -113 -143 -60 -210 16 -21 29 -26 62 -26 53 1 82 23 96 75 13 49 14 55 1 55 -5 0 -10 -8 -10 -18 0 -31 -36 -86 -61 -93 -62 -15 -108 37 -95 106 6 29 22 48 80 95 74 61 96 92 96 134 0 87 -74 139 -147 104z"/>
 <path d="M6511 699 c-41 -9 -82 -38 -98 -70 -8 -16 -13 -74 -13 -167 0 -130 2 -147 21 -173 60 -84 208 -78 254 10 24 47 20 89 -9 97 -44 11 -91 1 -94 -21 -6 -33 -22 -47 -38 -34 -10 8 -14 40 -14 119 0 115 4 140 25 140 15 0 25 -44 14 -62 -5 -7 -9 -32 -9 -55 l0 -43 70 0 70 0 0 83 c0 45 -6 93 -13 106 -27 52 -101 84 -166 70z"/>
 <path d="M7422 699 c-64 -13 -112 -68 -112 -129 0 -18 6 -20 58 -20 54 0 60 2 71 27 9 19 15 23 23 15 17 -17 3 -37 -54 -82 -104 -82 -126 -164 -65 -235 29 -34 39 -39 89 -43 95 -8 158 39 158 118 l0 30 -60 0 c-52 0 -60 -3 -60 -18 0 -24 -8 -32 -26 -25 -27 10 -14 32 61 98 82 74 99 108 85 172 -16 69 -88 109 -168 92z"/>
 <path d="M4570 465 l0 -235 93 0 c149 0 202 40 202 155 0 59 -3 67 -35 100 -29 30 -40 35 -82 35 l-47 0 -3 88 -3 87 -62 3 -63 3 0 -236z m171 -59 c13 -27 -3 -66 -26 -66 -11 0 -15 12 -15 45 0 51 22 63 41 21z"/>
 <path d="M5005 663 c3 -21 25 -126 48 -233 l42 -195 70 0 70 0 42 195 c23 107 45 212 49 233 l7 37 -61 0 c-61 0 -62 0 -70 -32 -7 -28 -13 -33 -38 -33 -24 0 -31 5 -39 33 -9 31 -10 32 -68 32 l-59 0 7 -37z m179 -145 c-2 -13 -6 -41 -10 -63 l-7 -40 -7 30 c-4 17 -8 45 -9 63 -1 25 3 32 18 32 13 0 17 -6 15 -22z"/>
 <path d="M5500 465 l0 -235 60 0 60 0 0 180 0 179 73 3 c71 3 72 3 75 32 2 15 1 39 -2 52 -6 24 -8 24 -136 24 l-130 0 0 -235z"/>
 <path d="M5923 678 c4 -12 25 -113 48 -223 22 -110 43 -206 45 -212 2 -9 26 -13 74 -13 38 0 70 2 70 5 0 8 91 439 95 453 3 9 -13 12 -60 12 -61 0 -65 -2 -65 -22 0 -36 -15 -50 -46 -46 -22 2 -30 10 -36 36 -8 32 -9 32 -69 32 -58 0 -61 -1 -56 -22z m183 -169 c-3 -17 -6 -45 -6 -62 0 -47 -17 -20 -25 41 -6 49 -6 52 15 52 20 0 22 -4 16 -31z"/>
 <path d="M6895 666 c-39 -42 -45 -68 -45 -207 0 -128 15 -178 65 -209 42 -26 125 -27 167 -3 53 31 68 77 68 206 0 145 -5 171 -45 213 -31 33 -35 34 -105 34 -70 0 -74 -1 -105 -34z m120 -202 c0 -108 -2 -129 -15 -129 -12 0 -16 21 -18 119 -3 127 0 150 21 143 9 -3 12 -38 12 -133z"/>
 <path d="M300 504 c0 -60 35 -109 88 -124 24 -7 141 -10 332 -8 l295 3 0 85 0 85 -357 3 -358 2 0 -46z"/>
 <path d="M1030 471 c0 -82 12 -107 43 -95 12 4 17 22 19 62 l3 57 113 3 c112 3 112 3 112 27 l0 25 -145 0 -145 0 0 -79z"/>
 <path d="M1172 463 c-35 -17 -62 -58 -62 -93 0 -37 30 -81 65 -96 51 -21 70 -18 109 20 30 28 36 40 36 76 0 36 -6 48 -36 76 -39 38 -63 41 -112 17z"/>
 <path d="M2270 240 c-11 -7 4 -10 48 -10 40 0 61 4 57 10 -8 13 -85 13 -105 0z"/>
 </g>
<g id="layer103" fill="#fafafa" stroke="none">
 <path d="M180 830 c-19 -19 -20 -33 -20 -253 0 -194 3 -236 16 -255 20 -29 79 -31 94 -3 5 11 10 75 10 142 l0 122 46 -7 c26 -3 264 -6 530 -6 l483 0 3 -179 c3 -159 5 -181 22 -200 23 -25 44 -27 74 -5 22 15 22 16 22 324 0 308 0 309 -22 324 -57 40 -98 -3 -98 -105 l0 -69 -530 0 -530 0 0 79 c0 71 -2 82 -22 95 -30 21 -54 20 -78 -4z"/>
 <path d="M6515 700 c-47 -10 -74 -29 -95 -63 -17 -27 -20 -51 -20 -165 0 -152 11 -191 62 -222 60 -36 168 -20 202 32 8 12 18 42 22 65 6 39 5 42 -18 48 -14 4 -40 5 -59 3 -28 -3 -34 -8 -41 -36 -6 -24 -14 -32 -26 -30 -15 3 -17 19 -20 113 -2 61 0 120 3 133 6 25 30 29 39 6 9 -24 7 -54 -4 -54 -5 0 -10 -20 -10 -45 l0 -45 71 0 72 0 -5 96 c-5 85 -8 99 -30 120 -30 31 -103 53 -143 44z"/>
 <path d="M7424 700 c-66 -14 -97 -46 -108 -112 l-7 -38 59 0 c55 0 60 2 66 25 7 28 31 33 40 9 4 -11 -5 -25 -25 -43 -91 -76 -127 -117 -134 -154 -10 -52 12 -106 55 -135 29 -20 44 -23 94 -20 53 4 62 8 92 41 25 27 34 46 34 72 l0 35 -59 0 c-54 0 -60 -2 -63 -22 -4 -29 -32 -30 -36 -1 -2 15 8 30 35 50 20 15 57 47 80 69 41 39 43 44 43 97 0 51 -3 60 -34 90 -36 36 -77 48 -132 37z"/>
 <path d="M4580 464 l0 -237 98 5 c108 5 130 13 163 60 18 25 23 44 22 96 0 58 -4 67 -31 94 -23 24 -42 32 -81 36 l-50 4 -3 87 -3 86 -57 3 -58 3 0 -237z m163 -56 c14 -21 -6 -68 -28 -68 -11 0 -15 11 -15 46 0 37 3 45 16 42 9 -2 22 -11 27 -20z"/>
 <path d="M5005 668 c4 -18 25 -123 49 -233 l42 -200 69 0 69 0 47 225 c27 124 48 228 49 233 0 4 -27 7 -60 7 l-59 0 -7 -35 c-6 -32 -9 -35 -39 -35 -34 0 -45 13 -45 51 0 17 -8 19 -60 19 l-61 0 6 -32z m177 -175 c-7 -72 -18 -83 -26 -28 -4 26 -10 54 -13 61 -3 10 3 14 20 14 23 0 24 -2 19 -47z"/>
 <path d="M5500 465 l0 -236 58 3 57 3 3 178 2 177 56 0 c71 0 94 12 94 50 0 60 -1 60 -141 60 l-129 0 0 -235z"/>
 <path d="M5924 683 c3 -10 24 -105 46 -212 22 -107 43 -205 46 -218 6 -21 11 -23 70 -23 48 0 66 4 70 15 4 8 27 114 53 235 l47 220 -62 0 -63 0 -3 -32 c-3 -30 -6 -33 -37 -33 -31 0 -36 4 -43 33 -8 32 -9 32 -69 32 -53 0 -60 -2 -55 -17z m180 -200 c-3 -32 -8 -60 -10 -62 -8 -8 -12 5 -18 62 -7 54 -6 57 14 57 20 0 21 -3 14 -57z"/>
 <path d="M6940 692 c-65 -31 -82 -64 -88 -178 -7 -141 3 -199 43 -243 33 -35 35 -36 105 -36 70 0 72 1 105 36 40 44 51 105 42 243 -6 102 -16 132 -55 161 -27 20 -123 31 -152 17z m80 -111 c16 -32 13 -214 -5 -237 -15 -19 -15 -19 -30 0 -11 15 -15 46 -15 119 0 94 9 137 30 137 5 0 14 -9 20 -19z"/>
 <path d="M300 513 c0 -54 29 -105 70 -126 31 -15 66 -17 340 -15 l305 3 0 85 0 85 -357 3 -358 2 0 -37z"/>
 <path d="M1030 471 c0 -82 12 -107 44 -95 12 5 16 20 16 65 l0 59 115 0 115 0 0 25 0 25 -145 0 -145 0 0 -79z"/>
 <path d="M1193 472 c-29 -4 -71 -45 -79 -76 -25 -100 103 -170 177 -97 71 72 5 190 -98 173z"/>
 </g>

</svg>